<mxfile host="app.diagrams.net" modified="2022-01-29T09:02:04.435Z" agent="5.0 (Windows NT 10.0; Win64; x64) AppleWebKit/537.36 (KHTML, like Gecko) Chrome/97.0.4692.99 Safari/537.36" etag="khge_4qxNFZemQ3lw-yG" version="16.2.7" type="github">
  <diagram id="2_OSgzKx9RlC4Svybtem" name="Page-1">
    <mxGraphModel dx="1422" dy="762" grid="1" gridSize="10" guides="1" tooltips="1" connect="1" arrows="1" fold="1" page="1" pageScale="1" pageWidth="850" pageHeight="1100" math="0" shadow="0">
      <root>
        <mxCell id="0" />
        <mxCell id="1" parent="0" />
        <mxCell id="ZOsBQ1r3S8LSTubL9PRr-1" value="Web Service" style="ellipse;shape=cloud;whiteSpace=wrap;html=1;" vertex="1" parent="1">
          <mxGeometry x="340" y="50" width="170" height="110" as="geometry" />
        </mxCell>
        <mxCell id="ZOsBQ1r3S8LSTubL9PRr-2" value="ForPalletDownload" style="shape=table;startSize=30;container=1;collapsible=0;childLayout=tableLayout;fontStyle=1;align=center;" vertex="1" parent="1">
          <mxGeometry x="170" y="450" width="180" height="150" as="geometry" />
        </mxCell>
        <mxCell id="ZOsBQ1r3S8LSTubL9PRr-3" value="" style="shape=tableRow;horizontal=0;startSize=0;swimlaneHead=0;swimlaneBody=0;top=0;left=0;bottom=0;right=0;collapsible=0;dropTarget=0;fillColor=none;points=[[0,0.5],[1,0.5]];portConstraint=eastwest;" vertex="1" parent="ZOsBQ1r3S8LSTubL9PRr-2">
          <mxGeometry y="30" width="180" height="40" as="geometry" />
        </mxCell>
        <mxCell id="ZOsBQ1r3S8LSTubL9PRr-4" value="" style="shape=partialRectangle;html=1;whiteSpace=wrap;connectable=0;fillColor=none;top=0;left=0;bottom=0;right=0;overflow=hidden;" vertex="1" parent="ZOsBQ1r3S8LSTubL9PRr-3">
          <mxGeometry width="60" height="40" as="geometry">
            <mxRectangle width="60" height="40" as="alternateBounds" />
          </mxGeometry>
        </mxCell>
        <mxCell id="ZOsBQ1r3S8LSTubL9PRr-5" value="" style="shape=partialRectangle;html=1;whiteSpace=wrap;connectable=0;fillColor=none;top=0;left=0;bottom=0;right=0;overflow=hidden;" vertex="1" parent="ZOsBQ1r3S8LSTubL9PRr-3">
          <mxGeometry x="60" width="60" height="40" as="geometry">
            <mxRectangle width="60" height="40" as="alternateBounds" />
          </mxGeometry>
        </mxCell>
        <mxCell id="ZOsBQ1r3S8LSTubL9PRr-6" value="" style="shape=partialRectangle;html=1;whiteSpace=wrap;connectable=0;fillColor=none;top=0;left=0;bottom=0;right=0;overflow=hidden;" vertex="1" parent="ZOsBQ1r3S8LSTubL9PRr-3">
          <mxGeometry x="120" width="60" height="40" as="geometry">
            <mxRectangle width="60" height="40" as="alternateBounds" />
          </mxGeometry>
        </mxCell>
        <mxCell id="ZOsBQ1r3S8LSTubL9PRr-7" value="" style="shape=tableRow;horizontal=0;startSize=0;swimlaneHead=0;swimlaneBody=0;top=0;left=0;bottom=0;right=0;collapsible=0;dropTarget=0;fillColor=none;points=[[0,0.5],[1,0.5]];portConstraint=eastwest;" vertex="1" parent="ZOsBQ1r3S8LSTubL9PRr-2">
          <mxGeometry y="70" width="180" height="40" as="geometry" />
        </mxCell>
        <mxCell id="ZOsBQ1r3S8LSTubL9PRr-8" value="" style="shape=partialRectangle;html=1;whiteSpace=wrap;connectable=0;fillColor=none;top=0;left=0;bottom=0;right=0;overflow=hidden;" vertex="1" parent="ZOsBQ1r3S8LSTubL9PRr-7">
          <mxGeometry width="60" height="40" as="geometry">
            <mxRectangle width="60" height="40" as="alternateBounds" />
          </mxGeometry>
        </mxCell>
        <mxCell id="ZOsBQ1r3S8LSTubL9PRr-9" value="" style="shape=partialRectangle;html=1;whiteSpace=wrap;connectable=0;fillColor=none;top=0;left=0;bottom=0;right=0;overflow=hidden;" vertex="1" parent="ZOsBQ1r3S8LSTubL9PRr-7">
          <mxGeometry x="60" width="60" height="40" as="geometry">
            <mxRectangle width="60" height="40" as="alternateBounds" />
          </mxGeometry>
        </mxCell>
        <mxCell id="ZOsBQ1r3S8LSTubL9PRr-10" value="" style="shape=partialRectangle;html=1;whiteSpace=wrap;connectable=0;fillColor=none;top=0;left=0;bottom=0;right=0;overflow=hidden;" vertex="1" parent="ZOsBQ1r3S8LSTubL9PRr-7">
          <mxGeometry x="120" width="60" height="40" as="geometry">
            <mxRectangle width="60" height="40" as="alternateBounds" />
          </mxGeometry>
        </mxCell>
        <mxCell id="ZOsBQ1r3S8LSTubL9PRr-11" value="" style="shape=tableRow;horizontal=0;startSize=0;swimlaneHead=0;swimlaneBody=0;top=0;left=0;bottom=0;right=0;collapsible=0;dropTarget=0;fillColor=none;points=[[0,0.5],[1,0.5]];portConstraint=eastwest;" vertex="1" parent="ZOsBQ1r3S8LSTubL9PRr-2">
          <mxGeometry y="110" width="180" height="40" as="geometry" />
        </mxCell>
        <mxCell id="ZOsBQ1r3S8LSTubL9PRr-12" value="" style="shape=partialRectangle;html=1;whiteSpace=wrap;connectable=0;fillColor=none;top=0;left=0;bottom=0;right=0;overflow=hidden;" vertex="1" parent="ZOsBQ1r3S8LSTubL9PRr-11">
          <mxGeometry width="60" height="40" as="geometry">
            <mxRectangle width="60" height="40" as="alternateBounds" />
          </mxGeometry>
        </mxCell>
        <mxCell id="ZOsBQ1r3S8LSTubL9PRr-13" value="" style="shape=partialRectangle;html=1;whiteSpace=wrap;connectable=0;fillColor=none;top=0;left=0;bottom=0;right=0;overflow=hidden;" vertex="1" parent="ZOsBQ1r3S8LSTubL9PRr-11">
          <mxGeometry x="60" width="60" height="40" as="geometry">
            <mxRectangle width="60" height="40" as="alternateBounds" />
          </mxGeometry>
        </mxCell>
        <mxCell id="ZOsBQ1r3S8LSTubL9PRr-14" value="" style="shape=partialRectangle;html=1;whiteSpace=wrap;connectable=0;fillColor=none;top=0;left=0;bottom=0;right=0;overflow=hidden;" vertex="1" parent="ZOsBQ1r3S8LSTubL9PRr-11">
          <mxGeometry x="120" width="60" height="40" as="geometry">
            <mxRectangle width="60" height="40" as="alternateBounds" />
          </mxGeometry>
        </mxCell>
        <mxCell id="ZOsBQ1r3S8LSTubL9PRr-15" value="ForPalletUpload" style="shape=table;startSize=30;container=1;collapsible=0;childLayout=tableLayout;fontStyle=1;align=center;" vertex="1" parent="1">
          <mxGeometry x="525" y="450" width="180" height="150" as="geometry" />
        </mxCell>
        <mxCell id="ZOsBQ1r3S8LSTubL9PRr-16" value="" style="shape=tableRow;horizontal=0;startSize=0;swimlaneHead=0;swimlaneBody=0;top=0;left=0;bottom=0;right=0;collapsible=0;dropTarget=0;fillColor=none;points=[[0,0.5],[1,0.5]];portConstraint=eastwest;" vertex="1" parent="ZOsBQ1r3S8LSTubL9PRr-15">
          <mxGeometry y="30" width="180" height="40" as="geometry" />
        </mxCell>
        <mxCell id="ZOsBQ1r3S8LSTubL9PRr-17" value="" style="shape=partialRectangle;html=1;whiteSpace=wrap;connectable=0;fillColor=none;top=0;left=0;bottom=0;right=0;overflow=hidden;" vertex="1" parent="ZOsBQ1r3S8LSTubL9PRr-16">
          <mxGeometry width="60" height="40" as="geometry">
            <mxRectangle width="60" height="40" as="alternateBounds" />
          </mxGeometry>
        </mxCell>
        <mxCell id="ZOsBQ1r3S8LSTubL9PRr-18" value="" style="shape=partialRectangle;html=1;whiteSpace=wrap;connectable=0;fillColor=none;top=0;left=0;bottom=0;right=0;overflow=hidden;" vertex="1" parent="ZOsBQ1r3S8LSTubL9PRr-16">
          <mxGeometry x="60" width="60" height="40" as="geometry">
            <mxRectangle width="60" height="40" as="alternateBounds" />
          </mxGeometry>
        </mxCell>
        <mxCell id="ZOsBQ1r3S8LSTubL9PRr-19" value="" style="shape=partialRectangle;html=1;whiteSpace=wrap;connectable=0;fillColor=none;top=0;left=0;bottom=0;right=0;overflow=hidden;" vertex="1" parent="ZOsBQ1r3S8LSTubL9PRr-16">
          <mxGeometry x="120" width="60" height="40" as="geometry">
            <mxRectangle width="60" height="40" as="alternateBounds" />
          </mxGeometry>
        </mxCell>
        <mxCell id="ZOsBQ1r3S8LSTubL9PRr-20" value="" style="shape=tableRow;horizontal=0;startSize=0;swimlaneHead=0;swimlaneBody=0;top=0;left=0;bottom=0;right=0;collapsible=0;dropTarget=0;fillColor=none;points=[[0,0.5],[1,0.5]];portConstraint=eastwest;" vertex="1" parent="ZOsBQ1r3S8LSTubL9PRr-15">
          <mxGeometry y="70" width="180" height="40" as="geometry" />
        </mxCell>
        <mxCell id="ZOsBQ1r3S8LSTubL9PRr-21" value="" style="shape=partialRectangle;html=1;whiteSpace=wrap;connectable=0;fillColor=none;top=0;left=0;bottom=0;right=0;overflow=hidden;" vertex="1" parent="ZOsBQ1r3S8LSTubL9PRr-20">
          <mxGeometry width="60" height="40" as="geometry">
            <mxRectangle width="60" height="40" as="alternateBounds" />
          </mxGeometry>
        </mxCell>
        <mxCell id="ZOsBQ1r3S8LSTubL9PRr-22" value="" style="shape=partialRectangle;html=1;whiteSpace=wrap;connectable=0;fillColor=none;top=0;left=0;bottom=0;right=0;overflow=hidden;" vertex="1" parent="ZOsBQ1r3S8LSTubL9PRr-20">
          <mxGeometry x="60" width="60" height="40" as="geometry">
            <mxRectangle width="60" height="40" as="alternateBounds" />
          </mxGeometry>
        </mxCell>
        <mxCell id="ZOsBQ1r3S8LSTubL9PRr-23" value="" style="shape=partialRectangle;html=1;whiteSpace=wrap;connectable=0;fillColor=none;top=0;left=0;bottom=0;right=0;overflow=hidden;" vertex="1" parent="ZOsBQ1r3S8LSTubL9PRr-20">
          <mxGeometry x="120" width="60" height="40" as="geometry">
            <mxRectangle width="60" height="40" as="alternateBounds" />
          </mxGeometry>
        </mxCell>
        <mxCell id="ZOsBQ1r3S8LSTubL9PRr-24" value="" style="shape=tableRow;horizontal=0;startSize=0;swimlaneHead=0;swimlaneBody=0;top=0;left=0;bottom=0;right=0;collapsible=0;dropTarget=0;fillColor=none;points=[[0,0.5],[1,0.5]];portConstraint=eastwest;" vertex="1" parent="ZOsBQ1r3S8LSTubL9PRr-15">
          <mxGeometry y="110" width="180" height="40" as="geometry" />
        </mxCell>
        <mxCell id="ZOsBQ1r3S8LSTubL9PRr-25" value="" style="shape=partialRectangle;html=1;whiteSpace=wrap;connectable=0;fillColor=none;top=0;left=0;bottom=0;right=0;overflow=hidden;" vertex="1" parent="ZOsBQ1r3S8LSTubL9PRr-24">
          <mxGeometry width="60" height="40" as="geometry">
            <mxRectangle width="60" height="40" as="alternateBounds" />
          </mxGeometry>
        </mxCell>
        <mxCell id="ZOsBQ1r3S8LSTubL9PRr-26" value="" style="shape=partialRectangle;html=1;whiteSpace=wrap;connectable=0;fillColor=none;top=0;left=0;bottom=0;right=0;overflow=hidden;" vertex="1" parent="ZOsBQ1r3S8LSTubL9PRr-24">
          <mxGeometry x="60" width="60" height="40" as="geometry">
            <mxRectangle width="60" height="40" as="alternateBounds" />
          </mxGeometry>
        </mxCell>
        <mxCell id="ZOsBQ1r3S8LSTubL9PRr-27" value="" style="shape=partialRectangle;html=1;whiteSpace=wrap;connectable=0;fillColor=none;top=0;left=0;bottom=0;right=0;overflow=hidden;" vertex="1" parent="ZOsBQ1r3S8LSTubL9PRr-24">
          <mxGeometry x="120" width="60" height="40" as="geometry">
            <mxRectangle width="60" height="40" as="alternateBounds" />
          </mxGeometry>
        </mxCell>
        <mxCell id="ZOsBQ1r3S8LSTubL9PRr-29" value="svcDownloadBuffer" style="shape=module;align=left;spacingLeft=20;align=center;verticalAlign=top;" vertex="1" parent="1">
          <mxGeometry x="170" y="260" width="170" height="60" as="geometry" />
        </mxCell>
        <mxCell id="ZOsBQ1r3S8LSTubL9PRr-30" value="svcUploadBuffer" style="shape=module;align=left;spacingLeft=20;align=center;verticalAlign=top;" vertex="1" parent="1">
          <mxGeometry x="525" y="260" width="170" height="60" as="geometry" />
        </mxCell>
        <mxCell id="ZOsBQ1r3S8LSTubL9PRr-31" value="" style="shape=image;html=1;verticalAlign=top;verticalLabelPosition=bottom;labelBackgroundColor=#ffffff;imageAspect=0;aspect=fixed;image=https://cdn0.iconfinder.com/data/icons/gcons-2/23/circular10-128.png" vertex="1" parent="1">
          <mxGeometry x="372" y="226" width="128" height="128" as="geometry" />
        </mxCell>
        <mxCell id="ZOsBQ1r3S8LSTubL9PRr-32" value="" style="endArrow=classic;startArrow=classic;html=1;rounded=0;exitX=0.5;exitY=0;exitDx=0;exitDy=0;entryX=0.312;entryY=0.864;entryDx=0;entryDy=0;entryPerimeter=0;" edge="1" parent="1" source="ZOsBQ1r3S8LSTubL9PRr-29" target="ZOsBQ1r3S8LSTubL9PRr-1">
          <mxGeometry width="50" height="50" relative="1" as="geometry">
            <mxPoint x="400" y="420" as="sourcePoint" />
            <mxPoint x="450" y="370" as="targetPoint" />
          </mxGeometry>
        </mxCell>
        <mxCell id="ZOsBQ1r3S8LSTubL9PRr-33" value="" style="endArrow=classic;startArrow=classic;html=1;rounded=0;entryX=0.8;entryY=0.8;entryDx=0;entryDy=0;entryPerimeter=0;exitX=0.5;exitY=0;exitDx=0;exitDy=0;" edge="1" parent="1" source="ZOsBQ1r3S8LSTubL9PRr-30" target="ZOsBQ1r3S8LSTubL9PRr-1">
          <mxGeometry width="50" height="50" relative="1" as="geometry">
            <mxPoint x="400" y="420" as="sourcePoint" />
            <mxPoint x="450" y="370" as="targetPoint" />
          </mxGeometry>
        </mxCell>
        <mxCell id="ZOsBQ1r3S8LSTubL9PRr-34" value="Circular" style="text;html=1;strokeColor=none;fillColor=none;align=center;verticalAlign=middle;whiteSpace=wrap;rounded=0;" vertex="1" parent="1">
          <mxGeometry x="406" y="360" width="60" height="30" as="geometry" />
        </mxCell>
        <mxCell id="ZOsBQ1r3S8LSTubL9PRr-37" value="" style="endArrow=classic;html=1;rounded=0;exitX=0.5;exitY=1;exitDx=0;exitDy=0;entryX=0.467;entryY=-0.007;entryDx=0;entryDy=0;entryPerimeter=0;" edge="1" parent="1" source="ZOsBQ1r3S8LSTubL9PRr-29" target="ZOsBQ1r3S8LSTubL9PRr-2">
          <mxGeometry width="50" height="50" relative="1" as="geometry">
            <mxPoint x="400" y="420" as="sourcePoint" />
            <mxPoint x="450" y="370" as="targetPoint" />
          </mxGeometry>
        </mxCell>
        <mxCell id="ZOsBQ1r3S8LSTubL9PRr-38" value="" style="endArrow=classic;html=1;rounded=0;exitX=0.5;exitY=1;exitDx=0;exitDy=0;entryX=0.467;entryY=-0.007;entryDx=0;entryDy=0;entryPerimeter=0;" edge="1" parent="1">
          <mxGeometry width="50" height="50" relative="1" as="geometry">
            <mxPoint x="615.44" y="320" as="sourcePoint" />
            <mxPoint x="614.5" y="448.95000000000005" as="targetPoint" />
          </mxGeometry>
        </mxCell>
        <mxCell id="ZOsBQ1r3S8LSTubL9PRr-39" value="Insert into" style="text;html=1;strokeColor=none;fillColor=none;align=center;verticalAlign=middle;whiteSpace=wrap;rounded=0;" vertex="1" parent="1">
          <mxGeometry x="180" y="370" width="60" height="30" as="geometry" />
        </mxCell>
        <mxCell id="ZOsBQ1r3S8LSTubL9PRr-40" value="Insert into" style="text;html=1;strokeColor=none;fillColor=none;align=center;verticalAlign=middle;whiteSpace=wrap;rounded=0;" vertex="1" parent="1">
          <mxGeometry x="540" y="370" width="60" height="30" as="geometry" />
        </mxCell>
      </root>
    </mxGraphModel>
  </diagram>
</mxfile>
